<svg width="280" height="280" viewBox="0 0 280 280" fill="none" xmlns="http://www.w3.org/2000/svg">
<path d="M150.66 79.9399C156.468 79.875 162.217 79.1893 167.801 79.8678C185.563 82.033 197.921 92.2818 206.477 107.648C207.602 109.661 208.75 110.578 211.145 110.701C225.559 111.437 236.488 118.525 244.099 130.52C254.07 146.232 255.116 163.359 250.109 181.028C246.401 194.113 239.374 205.076 228.351 213.167C219.21 219.879 209.009 222.954 197.704 221.864C192.344 221.352 187.402 219.519 182.771 216.87C181.429 216.098 180.462 216.025 179.07 216.87C168.797 223.163 157.73 226.05 145.726 224.477C136.982 223.337 129.14 219.944 122.265 214.409C120.851 213.268 120.007 213.29 118.593 214.466C109.142 222.333 98.5731 227.826 86.1934 228.771C70.5528 229.969 57.5816 224.167 47.1497 212.626C35.9243 200.205 30.528 185.041 28.407 168.664C24.4752 138.293 30.3549 109.734 45.6564 83.26C53.9023 68.9982 64.6443 57.01 79.5779 49.5399C103.082 37.7755 128.253 44.4949 142.833 66.4505C145.812 70.9325 148.258 75.7827 150.653 79.9472L150.66 79.9399Z" fill="#6BDFF2"/>
<path d="M225.972 147.715L215.184 129.495L173.853 153.967L184.641 172.187L225.972 147.715Z" fill="#F7E8DD"/>
<path d="M230.939 148.484C236.053 147.03 239.357 142.89 238.318 139.238C237.279 135.585 232.292 133.803 227.178 135.257C222.064 136.711 218.76 140.851 219.799 144.503C220.837 148.156 225.825 149.938 230.939 148.484Z" fill="#F7E8DD"/>
<path d="M234.278 152.156C234.428 149.027 230.998 146.32 226.617 146.111C222.236 145.902 218.563 148.269 218.414 151.398C218.264 154.528 221.695 157.234 226.075 157.444C230.456 157.653 234.129 155.286 234.278 152.156Z" fill="#F7E8DD"/>
<path d="M227.271 135.413C231.005 131.628 231.84 126.398 229.137 123.731C226.433 121.064 221.215 121.971 217.481 125.755C213.748 129.54 212.912 134.77 215.616 137.437C218.319 140.104 223.537 139.198 227.271 135.413Z" fill="#F7E8DD"/>
<path d="M216.251 128.681C218.175 124.736 217.452 120.425 214.634 119.05C211.817 117.676 207.974 119.759 206.049 123.704C204.125 127.648 204.848 131.96 207.666 133.334C210.483 134.709 214.326 132.625 216.251 128.681Z" fill="#F7E8DD"/>
<path d="M221.164 148.895C220.064 149.826 218.905 150.373 217.492 149.992C216.22 149.65 215.483 148.724 214.991 147.568C214.405 146.189 214.311 144.734 214.407 143.261C214.425 142.963 214.35 142.816 214.101 142.683C212.831 142.017 211.688 141.182 210.775 140.06C210.282 139.453 209.904 138.781 209.746 138.009C209.417 136.391 210.238 134.919 211.848 134.263C213.793 133.472 215.906 133.744 217.866 134.322C220.531 135.105 223.007 135.39 224.334 139.264C224.404 139.466 224.384 139.526 224.43 139.733C224.827 141.556 224.101 143.137 223.58 144.897C223.183 146.238 222.509 147.399 221.597 148.439C221.446 148.613 221.28 148.773 221.164 148.895Z" fill="#FFAFE6"/>
<path d="M209.077 142.774C207.788 140.599 208.392 137.612 209.961 135.88C210.114 135.712 210.376 135.699 210.544 135.852C210.71 136.005 210.726 136.267 210.573 136.435C209.046 138.118 208.563 141.161 210.277 143.01C210.728 143.495 211.356 143.749 211.999 143.853C212.224 142.686 212.942 141.633 214.099 140.824C214.729 140.384 215.491 140.259 216.038 140.506C216.484 140.708 216.766 141.133 216.834 141.706C217.013 143.251 215.392 144.301 213.808 144.62C213.487 144.685 213.126 144.724 212.748 144.726C212.753 144.97 212.784 145.216 212.841 145.468C213.295 147.485 215.229 149.219 217.441 149.59C217.666 149.629 217.816 149.841 217.78 150.064C217.741 150.29 217.529 150.44 217.306 150.404C214.778 149.979 212.564 147.98 212.038 145.649C211.962 145.317 211.926 144.991 211.923 144.669C211.099 144.547 210.275 144.218 209.673 143.57C209.44 143.321 209.243 143.054 209.077 142.774ZM215.903 141.444C215.828 141.317 215.737 141.276 215.696 141.257C215.416 141.133 214.952 141.232 214.568 141.499C213.622 142.16 213.028 142.984 212.826 143.902C213.116 143.894 213.393 143.86 213.642 143.811C214.664 143.604 216.139 142.899 216.012 141.802C215.994 141.639 215.952 141.524 215.903 141.444Z" fill="#00050E"/>
<path d="M214.229 125.968C214.924 124.545 214.662 122.989 213.646 122.493C212.629 121.997 211.242 122.749 210.547 124.172C209.853 125.596 210.114 127.152 211.131 127.648C212.148 128.144 213.535 127.392 214.229 125.968Z" fill="#FFAFE6"/>
<path d="M225.667 131.425C227.257 129.813 227.612 127.586 226.46 126.449C225.308 125.313 223.086 125.698 221.496 127.31C219.906 128.921 219.551 131.149 220.703 132.285C221.855 133.422 224.077 133.036 225.667 131.425Z" fill="#FFAFE6"/>
<path d="M230.619 151.988C230.673 150.858 229.434 149.881 227.852 149.806C226.27 149.73 224.944 150.585 224.89 151.715C224.836 152.845 226.075 153.822 227.657 153.897C229.239 153.973 230.565 153.118 230.619 151.988Z" fill="#FFAFE6"/>
<path d="M231.327 143.659C233.505 143.04 234.911 141.276 234.469 139.72C234.026 138.164 231.902 137.404 229.725 138.023C227.547 138.642 226.141 140.406 226.583 141.962C227.026 143.519 229.15 144.278 231.327 143.659Z" fill="#FFAFE6"/>
<path d="M124.442 218.25C120.307 216.736 115.635 218.149 111.256 218.994C104.17 220.36 96.8204 220.184 89.5766 219.782C80.3574 219.269 70.9178 218.333 62.7018 214.654C57.3092 212.237 51.8415 208.297 49.1815 203.454C47.8774 201.076 47.3718 198.271 48.3674 195.782C49.7 192.446 53.2052 190.229 52.6633 186.413C52.1422 182.747 49.1944 179.763 48.0744 176.26C47.1981 173.525 49.3966 170.73 52.6478 170.473C53.7522 170.385 54.8618 170.357 55.9715 170.388L51.3229 162.646C49.687 159.919 52.137 156.624 55.6552 156.919C63.35 157.562 70.8063 161.583 76.3026 166.566C83.5748 173.159 88.5604 181.401 95.3296 188.388C102.099 195.375 111.678 201.343 122.155 200.721L124.442 218.25Z" fill="#DB995D"/>
<path d="M154.71 112.013H116.763V130.265H154.71V112.013Z" fill="#FDE9E0"/>
<path d="M65.6729 233.839H179.247C186.41 233.839 192.217 228.031 192.217 220.868V215.559C192.217 211.734 189.117 208.634 185.293 208.634H64.7655C58.0559 208.634 52.614 214.073 52.614 220.785C52.6166 227.995 58.4603 233.839 65.6729 233.839Z" fill="#F7E8DD"/>
<path d="M73.9484 224.28H101.795L100.634 171.261C85.2547 171.261 71.3584 181.212 71.3584 192.386L73.9484 224.28Z" fill="#F7E8DD"/>
<path d="M72.3568 209.946C72.152 209.946 71.9808 209.787 71.9679 209.58L70.9697 193.065C70.9697 181.326 81.8949 171.793 95.3245 171.793C95.5397 171.793 95.7134 171.967 95.7134 172.182C95.7134 172.397 95.5397 172.571 95.3245 172.571C82.3227 172.571 71.7475 181.754 71.7475 193.042L72.7457 209.533C72.7586 209.749 72.5953 209.933 72.3801 209.946C72.3723 209.946 72.3645 209.946 72.3568 209.946Z" fill="#00050E"/>
<path d="M165.602 130.343H120.719C108.326 130.343 98.2773 139.681 98.2773 151.203L99.2133 225.952H121.655H166.538H188.979L188.043 151.203C188.041 139.681 177.994 130.343 165.602 130.343Z" fill="#F7E8DD"/>
<path d="M188.977 206.394C188.761 206.394 188.588 206.22 188.588 206.005V169.146C188.588 168.931 188.761 168.757 188.977 168.757C189.192 168.757 189.365 168.931 189.365 169.146V206.005C189.365 206.22 189.192 206.394 188.977 206.394Z" fill="#00050E"/>
<path d="M180.043 237.235H166.597C159.061 237.235 152.953 231.127 152.953 223.59V212.966C152.953 208.419 156.639 204.732 161.187 204.732H180.852C187.981 204.732 193.763 210.511 193.763 217.643V223.518C193.763 231.093 187.618 237.235 180.043 237.235Z" fill="#F7E8DD"/>
<path d="M69.4945 235.895C66.4793 235.895 63.4979 234.72 61.9449 232.734C61.7816 232.527 61.6364 232.312 61.5119 232.094C60.3271 232.499 58.979 232.662 57.7086 232.281C53.5734 231.039 51.8156 226.668 52.7697 223.365C52.8293 223.157 53.0445 223.041 53.2519 223.098C53.4593 223.157 53.576 223.373 53.519 223.58C52.6686 226.525 54.2397 230.427 57.9342 231.537C59.0049 231.858 60.1534 231.729 61.1749 231.391C60.5967 229.898 60.7938 228.226 61.7712 226.554C62.256 225.724 63.0934 225.149 63.8997 225.092C64.3612 225.058 65.0275 225.172 65.6108 225.903C66.0205 226.419 66.1838 227.01 66.093 227.663C65.9116 228.967 64.7371 230.233 63.6949 230.979C63.2853 231.272 62.7927 231.56 62.243 231.806C62.3364 231.959 62.4427 232.11 62.5567 232.257C64.4545 234.689 68.7401 235.773 72.3101 234.728C72.5175 234.669 72.7327 234.785 72.7923 234.993C72.8519 235.197 72.7353 235.415 72.5279 235.475C71.5504 235.757 70.5212 235.895 69.4945 235.895ZM64.0371 225.861C64.0086 225.861 63.9827 225.861 63.9542 225.864C63.4045 225.903 62.7953 226.339 62.4427 226.943C61.5819 228.415 61.4005 229.833 61.8982 231.106C62.4064 230.881 62.8627 230.614 63.2412 230.342C64.1097 229.717 65.1753 228.612 65.323 227.549C65.3827 227.111 65.279 226.727 65.0016 226.38C64.7242 226.038 64.4001 225.861 64.0371 225.861Z" fill="#00050E"/>
<path d="M159.673 235.773C159.66 235.773 159.647 235.773 159.634 235.77C156.212 235.439 152.797 232.19 153.168 227.889C153.282 226.569 153.933 225.374 154.744 224.423C154.589 224.226 154.441 224.01 154.309 223.782C152.6 220.866 153.196 216.1 155.67 212.932C155.802 212.764 156.046 212.733 156.217 212.865C156.385 212.997 156.416 213.241 156.284 213.412C153.995 216.347 153.424 220.728 154.983 223.391C155.079 223.551 155.18 223.704 155.286 223.85C155.716 223.43 156.167 223.077 156.59 222.807C157.669 222.115 159.279 221.49 160.557 221.801C161.197 221.957 161.687 222.328 162.014 222.901C162.478 223.71 162.338 224.376 162.136 224.791C161.783 225.519 160.943 226.084 159.992 226.23C158.076 226.523 156.45 226.09 155.276 225.001C154.586 225.828 154.042 226.847 153.946 227.961C153.614 231.806 156.66 234.705 159.712 235.003C159.924 235.024 160.082 235.213 160.062 235.428C160.041 235.623 159.87 235.773 159.673 235.773ZM155.802 224.428C156.803 225.361 158.187 225.716 159.875 225.457C160.57 225.351 161.197 224.946 161.436 224.449C161.609 224.091 161.576 223.699 161.337 223.284C161.117 222.898 160.8 222.66 160.37 222.556C159.328 222.299 157.907 222.883 157.007 223.461C156.616 223.712 156.199 224.039 155.802 224.428Z" fill="#00050E"/>
<path d="M129.041 140.469C126.783 136.689 122.484 134.138 117.33 132.297C95.8196 135.367 97.5541 142.709 97.5541 142.709C97.5541 142.709 95.3866 171.617 100.305 166.732C100.305 166.732 114.198 177.043 125.256 155.146C126.057 153.559 129.414 150.889 130.301 147.524C130.923 145.157 130.363 142.681 129.041 140.469Z" fill="#DB995D"/>
<path d="M97.0925 198.157C96.88 198.157 96.7037 197.983 96.7037 197.771L96.3848 145.496C96.3848 138.426 103.657 132.679 112.596 132.679C112.811 132.679 112.985 132.852 112.985 133.067C112.985 133.283 112.811 133.456 112.596 133.456C104.087 133.456 97.1625 138.857 97.1625 145.494L97.4814 197.766C97.4814 197.981 97.3103 198.157 97.0925 198.157Z" fill="#00050E"/>
<path d="M188.528 206.394H168.651C168.435 206.394 168.262 206.22 168.262 206.005C168.262 205.79 168.435 205.616 168.651 205.616H188.528C188.743 205.616 188.917 205.79 188.917 206.005C188.917 206.22 188.741 206.394 188.528 206.394Z" fill="#00050E"/>
<path d="M197.05 75.8152C198.279 77.5263 199.303 79.5615 199.705 81.9674C199.987 83.6578 199.889 85.47 199.028 87.5156C197.607 90.9015 193.693 94.0515 189.371 95.34C185.42 96.517 181.93 96.6259 178.648 96.3381C173.089 95.8507 168.28 94.4118 163.841 92.5167C159.706 90.7511 155.983 88.5941 152.719 86.0015C149.681 83.5878 147.034 80.8681 145.258 77.5133C144.127 75.3796 143.295 73.0748 143.746 70.1607C144.213 67.1404 145.953 64.2756 149.792 61.8437C152.25 60.2856 154.736 59.5467 157.166 59.1604C162.25 58.3541 166.533 58.8933 170.6 59.78C176.786 61.1281 182.08 63.4563 186.781 66.4041C190.838 68.9448 194.395 71.9056 197.05 75.8152Z" fill="black"/>
<path d="M194.965 121.932C194.364 124.877 193.228 127.921 191.095 130.674C189.596 132.609 187.605 134.26 184.629 135.344C179.705 137.135 172.612 136.093 167.074 132.816C162.014 129.819 158.516 126.272 155.638 122.554C150.762 116.26 147.607 109.83 145.289 103.343C143.129 97.3 141.781 91.3111 141.332 85.3819C140.915 79.8596 141.198 74.4541 142.989 69.3389C144.13 66.0878 145.735 62.9819 149.224 60.6304C152.841 58.1933 157.526 57.2393 163.792 58.9011C167.808 59.9667 170.989 61.8515 173.748 64.0215C179.521 68.5663 183.107 73.5726 186.12 78.6904C190.703 86.4785 193.394 94.277 194.867 102.057C196.137 108.767 196.485 115.363 194.965 121.932Z" fill="black"/>
<path d="M107.792 149.284C106.174 141.333 107.261 137.057 111.865 132.422C116.013 128.245 121.165 127.509 126.645 128.266C133.184 129.168 138.895 132.17 144.247 135.943C145.33 136.707 146.059 136.754 147.117 136.083C152.491 132.663 158.205 130.127 164.503 129.16C167.909 128.637 171.295 128.714 174.57 129.886C181.43 132.344 185.163 138.945 184.035 146.749C182.671 156.165 176.903 163.779 170.325 170.097C146.811 192.687 135.136 183.206 135.136 183.206C135.136 183.206 115.186 171.176 108.541 152.037C108.202 151.052 107.992 150.023 107.792 149.284Z" fill="#FFAFE6"/>
<path d="M76.7459 91.63C76.1444 93.6496 75.8411 95.9052 76.2481 98.3111C76.5333 100.001 77.2203 101.681 78.7007 103.333C81.1507 106.068 85.8796 107.766 90.3855 107.569C94.5025 107.39 97.8366 106.353 100.844 105.008C105.938 102.729 110.011 99.7967 113.589 96.5559C116.921 93.5355 119.734 90.2793 121.968 86.7611C124.05 83.4867 125.663 80.0515 126.246 76.2974C126.617 73.9122 126.651 71.4622 125.271 68.8541C123.843 66.1526 121.261 64.0137 116.84 62.9715C114.007 62.3026 111.417 62.4167 108.995 62.847C103.927 63.7467 100.053 65.6574 96.5014 67.8248C91.0959 71.1226 86.8544 75.053 83.3751 79.3748C80.3703 83.1056 77.9773 87.067 76.7459 91.63Z" fill="black"/>
<path d="M93.7947 134.532C95.3269 137.117 97.3958 139.624 100.31 141.53C102.358 142.867 104.78 143.777 107.948 143.829C113.185 143.912 119.55 140.609 123.711 135.699C127.514 131.211 129.658 126.716 131.164 122.261C133.715 114.717 134.594 107.611 134.664 100.722C134.729 94.3056 134.045 88.2052 132.531 82.4522C131.12 77.0985 129.085 72.0793 125.717 67.8326C123.578 65.1337 121.043 62.7226 116.978 61.6415C112.762 60.5189 108.023 61.1515 102.646 64.7707C99.2003 67.0911 96.8073 69.9119 94.9121 72.8648C90.9402 79.0456 89.1902 84.9515 88.0158 90.7745C86.2295 99.6333 86.2347 107.883 87.3884 115.715C88.3814 122.471 90.2117 128.818 93.7947 134.532Z" fill="black"/>
<path d="M104.99 64.1667C104.66 64.1667 104.326 64.1433 103.992 64.0967C102.607 63.8996 101.448 63.0882 100.569 62.1004C100.121 62.427 99.6205 62.7044 99.0682 62.9274C95.6901 64.2963 91.2542 63.2541 88.5216 60.4515C85.9316 57.7941 84.4979 54.0996 84.6923 50.5659C84.8505 47.6726 86.0768 45.1993 88.2416 43.413C88.4075 43.2756 88.6512 43.2989 88.7886 43.4648C88.926 43.6307 88.9027 43.8744 88.7368 44.0119C86.7457 45.653 85.6153 47.9344 85.4701 50.6048C85.2912 53.8741 86.6757 57.4389 89.0816 59.907C91.6042 62.4944 95.6823 63.4615 98.7779 62.2067C99.2549 62.0122 99.6905 61.7737 100.079 61.4911C99.6853 60.9519 99.3716 60.3893 99.1434 59.863C98.4564 58.2685 97.7694 54.9293 100.079 53.6926C100.997 53.2026 101.674 53.3919 102.083 53.6381C102.815 54.0763 103.284 55.0822 103.281 56.197C103.276 58.4681 102.537 60.3219 101.166 61.6052C101.93 62.4607 102.926 63.1581 104.1 63.3241C108.15 63.9022 111.762 60.4567 112.591 56.8737C112.64 56.6637 112.848 56.5341 113.058 56.5833C113.268 56.6326 113.398 56.84 113.348 57.05C112.511 60.6744 109.045 64.1667 104.99 64.1667ZM101.184 54.167C100.958 54.167 100.715 54.237 100.45 54.3796C98.6379 55.3467 99.2731 58.1882 99.8616 59.5544C100.061 60.0185 100.336 60.5163 100.678 60.9907C101.866 59.85 102.501 58.2063 102.506 56.1944C102.509 55.3596 102.179 54.6 101.687 54.3044C101.531 54.2111 101.363 54.167 101.184 54.167Z" fill="#00050E"/>
<path d="M166.185 67.2519L180.136 107.572C183.195 116.418 178.508 126.07 169.662 129.129L136.033 140.765C127.187 143.824 117.535 139.137 114.476 130.291L100.525 89.9707C96.136 77.2826 102.864 63.4356 115.552 59.0463L135.258 52.2278C147.949 47.8359 161.793 54.5637 166.185 67.2519Z" fill="#F7E8DD"/>
<mask id="mask0_1_1269" style="mask-type:luminance" maskUnits="userSpaceOnUse" x="98" y="50" width="85" height="94">
<path d="M165.915 66.4715L182.202 113.545C184.121 119.091 181.181 125.142 175.635 127.06L130.057 142.829C124.512 144.747 118.461 141.807 116.542 136.261L100.255 89.1904C96.014 76.9326 102.514 63.5548 114.771 59.3133L136.038 51.9556C148.299 47.7141 161.674 54.2137 165.915 66.4715Z" fill="white"/>
</mask>
<g mask="url(#mask0_1_1269)">
<path d="M112.762 57.0474C113.099 64.4622 118.754 70.3837 123.892 75.7374C129.033 81.0911 134.335 87.5467 133.703 94.9433C133.425 98.1711 132.015 101.184 130.527 104.061C128.421 108.132 126.111 112.099 123.61 115.938C121.432 119.285 118.873 122.72 115.114 124.069C113.138 124.779 110.74 124.771 109.135 123.415C108.109 122.547 107.549 121.258 107.022 120.019C98.5289 100.007 89.8852 79.2737 90.1393 57.5348C96.7659 61.1385 105.262 61.0244 111.79 57.247" fill="#DB995D"/>
</g>
<mask id="mask1_1_1269" style="mask-type:luminance" maskUnits="userSpaceOnUse" x="98" y="50" width="85" height="94">
<path d="M165.915 66.4715L182.202 113.545C184.121 119.091 181.181 125.142 175.635 127.06L130.057 142.829C124.512 144.747 118.461 141.807 116.542 136.261L100.255 89.1904C96.014 76.9326 102.514 63.5548 114.771 59.3133L136.038 51.9556C148.299 47.7141 161.674 54.2137 165.915 66.4715Z" fill="white"/>
</mask>
<g mask="url(#mask1_1_1269)">
<path d="M136.212 48.9326C140.531 54.9707 139.743 63.1193 139.012 70.5056C138.281 77.8919 138.1 86.2452 143.168 91.6689C145.38 94.0359 148.351 95.5319 151.301 96.8748C155.473 98.7726 159.74 100.463 164.08 101.938C167.86 103.221 171.995 104.341 175.783 103.081C177.777 102.418 179.656 100.93 180.079 98.8737C180.348 97.5541 179.996 96.1982 179.643 94.8993C173.953 73.9174 167.935 52.277 154.301 35.3422C151.319 42.2696 144.568 47.4315 137.101 48.497" fill="#DB995D"/>
</g>
<path d="M146.863 100.411L146.577 100.084C143.44 96.4911 137.62 97.4452 135.795 101.85C134.574 104.795 136.871 107.997 140.052 107.782L143.915 107.523C147.462 107.284 149.201 103.089 146.863 100.411Z" fill="#00050E"/>
<path d="M142.875 118.375C142.673 118.375 142.502 118.217 142.486 118.012L141.716 106.543C141.703 106.327 141.864 106.143 142.079 106.128C142.289 106.112 142.479 106.276 142.494 106.491L143.264 117.96C143.277 118.176 143.116 118.36 142.901 118.375C142.891 118.375 142.883 118.375 142.875 118.375Z" fill="#00050E"/>
<path d="M142.795 118.583C142.748 118.583 142.701 118.575 142.655 118.557L135.6 115.847C135.401 115.77 135.3 115.544 135.377 115.344C135.455 115.145 135.678 115.044 135.88 115.121L142.935 117.831C143.134 117.909 143.235 118.134 143.158 118.334C143.098 118.487 142.95 118.583 142.795 118.583Z" fill="#00050E"/>
<path d="M106.675 217.682C106.46 217.682 106.286 217.508 106.286 217.293V199.046C106.286 198.831 106.46 198.657 106.675 198.657C106.89 198.657 107.064 198.831 107.064 199.046V217.293C107.064 217.508 106.89 217.682 106.675 217.682Z" fill="#00050E"/>
<path d="M104.888 243.73H115.139C121.686 243.73 126.993 238.423 126.993 231.876V227.79C126.993 223.813 123.77 220.591 119.793 220.591H104.191C97.9947 220.591 92.9702 225.615 92.9702 231.811C92.9702 238.394 98.3058 243.73 104.888 243.73Z" fill="#FDE9E0"/>
<path d="M106.584 244.069C104.393 244.069 102.226 243.193 100.885 241.64C100.6 241.311 100.364 240.963 100.172 240.603C99.2262 240.956 98.158 241.09 97.1469 240.74C93.8154 239.592 92.3947 235.568 93.1595 232.532C93.2114 232.325 93.4239 232.198 93.6314 232.25C93.8388 232.301 93.9658 232.514 93.9139 232.721C93.2347 235.423 94.474 238.996 97.401 240.004C98.2125 240.284 99.0836 240.178 99.8665 239.89C99.4051 238.529 99.5632 237.01 100.351 235.459C100.753 234.669 101.458 234.127 102.143 234.08C102.532 234.054 103.094 234.168 103.574 234.858C104.603 236.343 103.499 238.319 102.034 239.527C101.71 239.794 101.321 240.056 100.888 240.281C101.046 240.577 101.241 240.86 101.474 241.129C103.131 243.048 106.218 243.805 108.816 242.931C109.021 242.864 109.241 242.973 109.309 243.175C109.376 243.377 109.267 243.6 109.065 243.667C108.264 243.94 107.421 244.069 106.584 244.069ZM102.239 234.855C102.223 234.855 102.21 234.855 102.195 234.858C101.79 234.886 101.318 235.278 101.044 235.814C100.372 237.131 100.222 238.417 100.585 239.566C100.942 239.374 101.267 239.154 101.539 238.928C102.54 238.104 103.735 236.457 102.934 235.301C102.729 235.006 102.495 234.855 102.239 234.855Z" fill="#00050E"/>
<path d="M125.826 234.933C125.611 234.933 125.437 234.759 125.437 234.544V176.703C125.437 176.488 125.611 176.314 125.826 176.314C126.041 176.314 126.215 176.488 126.215 176.703V234.541C126.215 234.757 126.041 234.933 125.826 234.933Z" fill="#00050E"/>
<path d="M125.176 97.8807C127.537 97.8807 129.451 95.9667 129.451 93.6056C129.451 91.2444 127.537 89.3304 125.176 89.3304C122.814 89.3304 120.9 91.2444 120.9 93.6056C120.9 95.9667 122.814 97.8807 125.176 97.8807Z" fill="#00050E"/>
<path d="M148.942 89.32C151.303 89.32 153.217 87.4059 153.217 85.0448C153.217 82.6837 151.303 80.7696 148.942 80.7696C146.581 80.7696 144.667 82.6837 144.667 85.0448C144.667 87.4059 146.581 89.32 148.942 89.32Z" fill="#00050E"/>
<path d="M129.881 152.844C130.449 152.984 131.115 153.017 131.541 152.595C132.005 152.133 131.968 151.348 131.839 150.689C131.385 148.387 130.224 146.323 129.08 144.309C128.868 143.933 128.637 143.539 128.271 143.331C127.779 143.054 127.138 143.202 126.721 143.593C126.304 143.985 126.088 144.573 126.024 145.162C125.998 145.39 125.995 145.626 125.922 145.844C125.85 146.061 125.692 146.264 125.523 146.152C124.971 146.176 124.434 146.487 124.115 146.966C123.797 147.446 123.701 148.089 123.867 148.649C124.113 149.486 124.847 150.036 125.536 150.521C126.895 151.477 128.292 152.455 129.881 152.844Z" fill="#DFE287"/>
<path d="M157.71 142.813C158.278 142.953 158.944 142.987 159.369 142.564C159.834 142.103 159.797 141.317 159.668 140.659C159.214 138.356 158.052 136.293 156.909 134.278C156.696 133.902 156.466 133.508 156.1 133.301C155.608 133.023 154.967 133.171 154.55 133.563C154.132 133.954 153.917 134.543 153.852 135.131C153.826 135.359 153.824 135.595 153.751 135.813C153.679 136.031 153.521 136.233 153.352 136.121C152.8 136.145 152.263 136.456 151.944 136.936C151.625 137.415 151.529 138.058 151.695 138.618C151.942 139.456 152.675 140.005 153.365 140.49C154.724 141.447 156.121 142.424 157.71 142.813Z" fill="#DFE287"/>
<path d="M134.768 176.846C135.336 176.986 136.002 177.02 136.428 176.597C136.892 176.136 136.855 175.35 136.726 174.691C136.272 172.389 135.111 170.326 133.967 168.311C133.755 167.935 133.524 167.541 133.158 167.334C132.666 167.056 132.025 167.204 131.608 167.596C131.191 167.987 130.975 168.576 130.911 169.164C130.885 169.392 130.882 169.628 130.809 169.846C130.737 170.064 130.579 170.266 130.41 170.154C129.858 170.178 129.321 170.489 129.002 170.969C128.683 171.448 128.588 172.091 128.753 172.651C129 173.489 129.733 174.038 130.423 174.523C131.782 175.48 133.179 176.457 134.768 176.846Z" fill="#DFE287"/>
<path d="M147.433 157.723C148.001 157.863 148.667 157.897 149.092 157.474C149.556 157.013 149.52 156.227 149.39 155.569C148.937 153.266 147.775 151.203 146.632 149.188C146.419 148.812 146.189 148.418 145.823 148.211C145.331 147.933 144.69 148.081 144.273 148.473C143.855 148.864 143.64 149.453 143.575 150.041C143.549 150.269 143.547 150.505 143.474 150.723C143.402 150.941 143.243 151.143 143.075 151.031C142.523 151.055 141.986 151.366 141.667 151.846C141.348 152.325 141.252 152.968 141.418 153.528C141.665 154.366 142.398 154.915 143.088 155.4C144.444 156.357 145.844 157.331 147.433 157.723Z" fill="#DFE287"/>
<path d="M178.192 145.419C178.759 145.559 179.426 145.592 179.851 145.17C180.315 144.708 180.279 143.923 180.149 143.264C179.695 140.962 178.534 138.898 177.391 136.884C177.178 136.508 176.947 136.114 176.582 135.906C176.089 135.629 175.449 135.777 175.031 136.168C174.614 136.56 174.399 137.148 174.334 137.737C174.308 137.965 174.305 138.201 174.233 138.419C174.16 138.636 174.002 138.839 173.833 138.727C173.281 138.75 172.745 139.061 172.426 139.541C172.107 140.021 172.011 140.664 172.177 141.224C172.423 142.061 173.157 142.611 173.846 143.096C175.205 144.055 176.602 145.03 178.192 145.419Z" fill="#DFE287"/>
<path d="M153.64 176.846C154.207 176.986 154.874 177.02 155.299 176.597C155.763 176.136 155.727 175.35 155.597 174.691C155.143 172.389 153.982 170.326 152.839 168.311C152.626 167.935 152.395 167.541 152.03 167.334C151.537 167.056 150.897 167.204 150.479 167.596C150.062 167.987 149.847 168.576 149.782 169.164C149.756 169.392 149.753 169.628 149.681 169.846C149.608 170.064 149.45 170.266 149.281 170.154C148.729 170.178 148.193 170.489 147.874 170.969C147.555 171.448 147.459 172.091 147.625 172.651C147.871 173.489 148.605 174.038 149.294 174.523C150.653 175.48 152.05 176.457 153.64 176.846Z" fill="#DFE287"/>
<path d="M166.701 161.679C167.269 161.819 167.935 161.853 168.36 161.43C168.824 160.969 168.788 160.183 168.659 159.525C168.205 157.223 167.043 155.159 165.9 153.144C165.687 152.769 165.457 152.374 165.091 152.167C164.599 151.89 163.958 152.037 163.541 152.429C163.123 152.82 162.908 153.409 162.843 153.997C162.817 154.226 162.815 154.461 162.742 154.679C162.67 154.897 162.512 155.099 162.343 154.988C161.791 155.011 161.254 155.322 160.935 155.802C160.616 156.281 160.52 156.924 160.686 157.484C160.933 158.322 161.666 158.871 162.356 159.356C163.714 160.316 165.112 161.29 166.701 161.679Z" fill="#DFE287"/>
<path d="M120.141 163.523C120.709 163.663 121.375 163.696 121.8 163.274C122.264 162.812 122.228 162.027 122.098 161.368C121.645 159.066 120.483 157.002 119.34 154.988C119.127 154.612 118.896 154.218 118.531 154.01C118.038 153.733 117.398 153.881 116.98 154.272C116.563 154.664 116.348 155.252 116.283 155.841C116.257 156.069 116.255 156.305 116.182 156.523C116.109 156.74 115.951 156.943 115.783 156.831C115.23 156.854 114.694 157.166 114.375 157.645C114.056 158.125 113.96 158.768 114.126 159.328C114.372 160.165 115.106 160.715 115.796 161.2C117.152 162.159 118.552 163.134 120.141 163.523Z" fill="#DFE287"/>
</svg>
