<svg width="90" height="32" viewBox="0 0 90 32" fill="none" xmlns="http://www.w3.org/2000/svg">
<path d="M12.2935 31.914C11.1033 31.914 9.98084 31.6702 8.92596 31.1828C7.87107 30.6953 6.97847 30.0502 6.24817 29.2473C5.51786 28.4158 5.04452 27.5125 4.82813 26.5376V14.8387C5.04452 13.8638 5.51786 13.0036 6.24817 12.2581C6.97847 11.5125 7.87107 10.9391 8.92596 10.5376C9.98084 10.1075 11.1033 9.89247 12.2935 9.89247C14.268 9.89247 15.9856 10.3656 17.4462 11.3118C18.9338 12.2294 20.0834 13.5197 20.8949 15.1828C21.7334 16.8459 22.1526 18.7527 22.1526 20.9032C22.1526 23.0538 21.7334 24.9606 20.8949 26.6237C20.0834 28.2581 18.9338 29.5484 17.4462 30.4946C15.9856 31.4409 14.268 31.914 12.2935 31.914ZM0 31.4839V0H7.95221V15.5269L6.65389 20.6452L7.74935 25.8065V31.4839H0ZM10.8329 24.5161C11.482 24.5161 12.05 24.3584 12.5369 24.043C13.0508 23.7276 13.443 23.2975 13.7135 22.7527C14.011 22.2079 14.1598 21.5914 14.1598 20.9032C14.1598 20.2151 14.011 19.5986 13.7135 19.0538C13.443 18.509 13.0508 18.0789 12.5369 17.7634C12.023 17.448 11.4415 17.2903 10.7923 17.2903C10.1431 17.2903 9.56159 17.448 9.04767 17.7634C8.5608 18.0789 8.18213 18.509 7.91164 19.0538C7.64116 19.5699 7.50592 20.1864 7.50592 20.9032C7.50592 21.6201 7.64116 22.2509 7.91164 22.7957C8.20917 23.3405 8.60138 23.7706 9.08825 24.086C9.60217 24.3728 10.1837 24.5161 10.8329 24.5161Z" fill="#6BDFF2"/>
<path d="M34.2575 32C32.31 32 30.5789 31.5986 29.0642 30.7957C27.5765 29.9928 26.3999 28.8746 25.5344 27.4409C24.6688 26.0072 24.2361 24.3728 24.2361 22.5376V10.3226H32.1883V22.6237C32.1883 23.0538 32.2694 23.4409 32.4317 23.7849C32.6211 24.129 32.8645 24.4014 33.162 24.6021C33.4866 24.7742 33.8517 24.8602 34.2575 24.8602C34.8255 24.8602 35.2988 24.6595 35.6775 24.2581C36.0832 23.828 36.2861 23.2832 36.2861 22.6237V10.3226H44.2383V22.5376C44.2383 24.4014 43.8055 26.0502 42.94 27.4839C42.1015 28.8889 40.9249 29.9928 39.4102 30.7957C37.9225 31.5986 36.205 32 34.2575 32Z" fill="#6BDFF2"/>
<path d="M56.1483 31.914C54.1737 31.914 52.4426 31.4409 50.955 30.4946C49.4944 29.5484 48.3448 28.2581 47.5063 26.6237C46.6949 24.9606 46.2891 23.0538 46.2891 20.9032C46.2891 18.7527 46.6949 16.8459 47.5063 15.1828C48.3448 13.5197 49.4944 12.2294 50.955 11.3118C52.4426 10.3656 54.1737 9.89247 56.1483 9.89247C57.3384 9.89247 58.4609 10.1075 59.5158 10.5376C60.5707 10.9391 61.4633 11.5125 62.1936 12.2581C62.9509 13.0036 63.4243 13.8638 63.6136 14.8387V26.5376C63.4243 27.5125 62.9509 28.4158 62.1936 29.2473C61.4633 30.0502 60.5707 30.6953 59.5158 31.1828C58.4609 31.6702 57.3384 31.914 56.1483 31.914ZM57.6089 24.5161C58.2851 24.5161 58.8666 24.3728 59.3535 24.086C59.8404 23.7706 60.219 23.3405 60.4895 22.7957C60.787 22.2509 60.9358 21.6201 60.9358 20.9032C60.9358 20.1864 60.8006 19.5699 60.5301 19.0538C60.2596 18.509 59.8674 18.0789 59.3535 17.7634C58.8666 17.448 58.2986 17.2903 57.6494 17.2903C57.0003 17.2903 56.4187 17.448 55.9048 17.7634C55.4179 18.0789 55.0257 18.509 54.7282 19.0538C54.4307 19.5986 54.2819 20.2151 54.2819 20.9032C54.2819 21.5914 54.4172 22.2079 54.6876 22.7527C54.9852 23.2975 55.3909 23.7276 55.9048 24.043C56.4187 24.3584 56.9868 24.5161 57.6089 24.5161ZM68.4417 31.4839H60.6924V25.8065L61.7878 20.6452L60.4895 15.5269V0H68.4417V31.4839Z" fill="#6BDFF2"/>
<path d="M71.2149 26.3656L80.1409 15.4409H90L81.074 26.3656H71.2149ZM71.2149 31.4839V26.3656L75.9619 24.7742H89.7566V31.4839H71.2149ZM71.9047 17.0323V10.3226H90V15.4409L85.253 17.0323H71.9047Z" fill="#6BDFF2"/>
</svg>
