<svg width="280" height="280" viewBox="0 0 280 280" fill="none" xmlns="http://www.w3.org/2000/svg">
<path d="M242.803 133.341C248.942 150.174 250.37 166.05 239.901 180.931C230.471 194.329 216.543 198.972 200.954 199.759C182.359 200.696 165.011 195.538 148.273 188.117C144.885 186.615 142.834 186.862 140.238 189.217C127.03 201.21 112.427 210.992 95.4295 216.839C86.2328 220.006 76.7961 221.541 67.1321 220.065C46.8697 216.969 33.2143 201.08 32.455 179.454C31.5463 153.354 43.7609 129.842 58.8636 109.414C79.3857 81.6485 99.5572 53.3891 138.096 58.7288C140.731 59.093 143.269 60.1141 145.904 60.4848C168.834 63.6652 188.252 74.3706 206.548 87.9833C220.47 98.3375 231.133 111.215 239.35 126.317C240.719 128.834 241.881 131.462 242.803 133.355V133.341Z" fill="#DFE287"/>
<path d="M177.118 189.088C183.597 167.028 213.977 136.79 223.354 145.26C227.013 148.563 218.812 159.831 218.812 159.831C218.812 159.831 224.511 158.607 226.717 161.954C229.903 166.792 218.74 177.51 223.562 183.278C233.694 195.401 225.833 213.863 181.533 219.603L177.118 189.088Z" fill="#DB995D"/>
<path d="M173.17 146.777V229.507H92.8123V146.777C92.8123 137.545 100.294 130.063 109.524 130.063H156.458C163.02 130.063 168.695 133.843 171.43 139.341V139.344C172.545 141.584 173.17 144.107 173.17 146.777Z" fill="#F7E8DD"/>
<path d="M95.2649 229.507H74.3115V189.907C74.3115 178.943 83.1989 170.059 94.1604 170.059H95.2623V229.507H95.2649Z" fill="#F7E8DD"/>
<path d="M135.445 229.507H71.0656C64.5686 229.507 59.3004 224.239 59.3004 217.741C59.3004 211.244 64.5686 205.976 71.0656 205.976H135.442V229.507H135.445Z" fill="#F7E8DD"/>
<path d="M121.225 241.272H111.018C104.52 241.272 99.2523 236.004 99.2523 229.507C99.2523 223.01 104.52 217.741 111.018 217.741H132.99V229.507C132.99 236.004 127.724 241.272 121.225 241.272Z" fill="#F7E8DD"/>
<path d="M170.717 229.507H191.67V189.907C191.67 178.943 182.783 170.059 171.821 170.059H170.72V229.507H170.717Z" fill="#F7E8DD"/>
<path d="M130.537 229.507H194.914C201.411 229.507 206.679 224.239 206.679 217.741C206.679 211.244 201.411 205.976 194.914 205.976H130.537V229.507Z" fill="#F7E8DD"/>
<path d="M144.755 241.272H154.962C161.459 241.272 166.727 236.004 166.727 229.507C166.727 223.01 161.459 217.741 154.962 217.741H132.99V229.507C132.99 236.004 138.258 241.272 144.755 241.272Z" fill="#F7E8DD"/>
<path d="M115.884 158.086C115.35 170.16 115.378 182.542 92.8121 192.383V146.777C92.8121 137.545 100.294 130.063 109.524 130.063H111.012C113.781 131.416 116.239 133.692 117.794 137.381C122.373 148.237 116.298 148.688 115.884 158.086Z" fill="#DB995D"/>
<path d="M173.17 146.777V202.453C150.606 192.609 150.632 180.229 150.095 168.156C149.681 158.757 143.609 158.306 148.185 147.451C153.175 135.616 167.455 138.33 171.427 139.341V139.344C172.545 141.584 173.17 144.107 173.17 146.777Z" fill="#DB995D"/>
<path d="M74.3115 206.482C74.0263 206.482 73.793 206.249 73.793 205.963V189.907C73.793 179.226 82.1333 170.3 92.7785 169.584C93.0637 169.558 93.3126 169.781 93.3307 170.066C93.3489 170.351 93.1337 170.6 92.8485 170.619C82.7452 171.298 74.8326 179.768 74.8326 189.907V205.963C74.83 206.251 74.5967 206.482 74.3115 206.482Z" fill="black"/>
<path d="M191.67 206.482C191.385 206.482 191.152 206.249 191.152 205.963V189.907C191.152 179.77 183.239 171.298 173.136 170.621C172.851 170.603 172.633 170.354 172.654 170.069C172.672 169.784 172.926 169.563 173.206 169.587C183.851 170.302 192.189 179.229 192.189 189.907V205.963C192.189 206.251 191.956 206.482 191.67 206.482Z" fill="black"/>
<path d="M74.1714 231.179C71.9496 231.179 69.7537 230.365 68.2992 228.869C67.9855 228.545 67.7159 228.203 67.4903 227.845C66.4896 228.273 65.3463 228.472 64.234 228.161C60.5007 227.116 58.6781 222.794 59.3159 219.414C59.3703 219.131 59.6426 218.947 59.9226 219.001C60.2052 219.056 60.3892 219.326 60.3348 219.608C59.78 222.538 61.3277 226.274 64.514 227.166C65.3566 227.401 66.2381 227.254 67.0289 226.924C66.4689 225.478 66.5544 223.826 67.3063 222.105C67.7055 221.19 68.4626 220.536 69.2351 220.438C69.8626 220.357 70.4614 220.637 70.9229 221.226C72.1726 222.815 71.0837 225.081 69.5437 226.515C69.2274 226.81 68.8463 227.103 68.4185 227.365C68.5948 227.64 68.8022 227.902 69.0433 228.148C70.9333 230.093 74.2855 230.707 77.0103 229.608C77.2774 229.499 77.5781 229.629 77.6844 229.896C77.7907 230.16 77.6637 230.463 77.3966 230.57C76.3752 230.979 75.2707 231.179 74.1714 231.179ZM69.4529 221.457C69.4166 221.457 69.3881 221.459 69.3674 221.462C68.9629 221.514 68.5066 221.947 68.2577 222.514C67.6459 223.914 67.5526 225.252 67.9648 226.427C68.294 226.217 68.5896 225.983 68.8411 225.75C69.8444 224.817 71.0111 223.01 70.1114 221.861C69.8289 221.509 69.5877 221.457 69.4529 221.457Z" fill="black"/>
<path d="M113.706 242.332C111.484 242.332 109.288 241.518 107.834 240.022C107.52 239.698 107.25 239.356 107.025 238.998C106.021 239.426 104.881 239.626 103.768 239.314C100.035 238.27 98.2125 233.948 98.8503 230.567C98.9048 230.284 99.177 230.1 99.457 230.155C99.7396 230.209 99.9236 230.479 99.8692 230.761C99.3144 233.691 100.862 237.427 104.048 238.319C104.891 238.555 105.773 238.407 106.563 238.078C106.003 236.631 106.089 234.98 106.841 233.258C107.24 232.343 107.997 231.69 108.77 231.591C109.397 231.513 109.996 231.791 110.46 232.379C111.71 233.971 110.621 236.237 109.081 237.668C108.764 237.964 108.383 238.257 107.955 238.519C108.132 238.793 108.339 239.055 108.58 239.301C110.47 241.246 113.823 241.86 116.547 240.761C116.812 240.652 117.115 240.782 117.221 241.049C117.328 241.316 117.201 241.617 116.934 241.723C115.91 242.133 114.805 242.332 113.706 242.332ZM108.987 232.61C108.951 232.61 108.923 232.613 108.902 232.615C108.497 232.667 108.041 233.1 107.792 233.668C107.18 235.068 107.087 236.406 107.499 237.58C107.828 237.37 108.124 237.137 108.375 236.903C109.379 235.97 110.546 234.163 109.646 233.014C109.363 232.662 109.122 232.61 108.987 232.61Z" fill="black"/>
<path d="M132.99 220.028C132.704 220.028 132.471 219.795 132.471 219.51V172.301C132.471 172.016 132.704 171.783 132.99 171.783C133.275 171.783 133.508 172.016 133.508 172.301V219.507C133.508 219.795 133.277 220.028 132.99 220.028Z" fill="black"/>
<path d="M114.968 215.17C114.683 215.17 114.45 214.936 114.45 214.651V194.696C114.45 194.411 114.683 194.177 114.968 194.177C115.254 194.177 115.487 194.411 115.487 194.696V214.651C115.487 214.939 115.254 215.17 114.968 215.17Z" fill="black"/>
<path d="M191.808 231.179C190.708 231.179 189.607 230.979 188.58 230.567C188.316 230.461 188.186 230.157 188.292 229.893C188.398 229.629 188.702 229.499 188.966 229.605C191.694 230.704 195.043 230.093 196.933 228.146C197.174 227.899 197.382 227.637 197.558 227.363C197.13 227.101 196.749 226.805 196.433 226.512C194.893 225.081 193.807 222.815 195.054 221.223C195.515 220.635 196.114 220.355 196.741 220.435C197.514 220.534 198.271 221.187 198.67 222.102C199.422 223.824 199.508 225.473 198.948 226.922C199.738 227.251 200.62 227.399 201.463 227.163C204.649 226.271 206.194 222.535 205.642 219.606C205.587 219.326 205.774 219.053 206.054 218.999C206.334 218.944 206.606 219.131 206.661 219.411C207.298 222.792 205.476 227.114 201.743 228.159C200.63 228.47 199.487 228.27 198.486 227.842C198.263 228.2 197.994 228.545 197.677 228.866C196.228 230.365 194.032 231.179 191.808 231.179ZM196.529 221.457C196.391 221.457 196.15 221.509 195.873 221.864C194.971 223.012 196.137 224.819 197.141 225.753C197.392 225.986 197.688 226.219 198.017 226.429C198.427 225.255 198.333 223.917 197.724 222.517C197.475 221.949 197.019 221.516 196.614 221.464C196.596 221.462 196.565 221.457 196.529 221.457Z" fill="black"/>
<path d="M152.273 242.332C151.174 242.332 150.072 242.133 149.046 241.72C148.781 241.614 148.651 241.311 148.758 241.046C148.864 240.782 149.167 240.652 149.432 240.759C152.159 241.858 155.509 241.243 157.399 239.299C157.64 239.053 157.847 238.791 158.024 238.516C157.596 238.254 157.215 237.959 156.898 237.666C155.358 236.234 154.272 233.969 155.519 232.377C155.981 231.788 156.58 231.511 157.21 231.589C157.982 231.687 158.737 232.34 159.136 233.256C159.888 234.977 159.973 236.626 159.413 238.075C160.204 238.404 161.086 238.552 161.928 238.316C165.114 237.424 166.66 233.689 166.107 230.759C166.053 230.479 166.24 230.207 166.52 230.152C166.8 230.098 167.072 230.284 167.126 230.564C167.767 233.945 165.941 238.267 162.208 239.312C161.096 239.623 159.953 239.423 158.952 238.996C158.729 239.353 158.459 239.698 158.143 240.02C156.691 241.516 154.498 242.332 152.273 242.332ZM156.994 232.61C156.857 232.61 156.616 232.662 156.338 233.017C155.436 234.166 156.603 235.973 157.609 236.906C157.858 237.139 158.156 237.373 158.485 237.583C158.895 236.408 158.801 235.07 158.192 233.67C157.943 233.103 157.487 232.67 157.083 232.618C157.059 232.613 157.031 232.61 156.994 232.61Z" fill="black"/>
<path d="M151.013 215.17C150.728 215.17 150.495 214.936 150.495 214.651V194.696C150.495 194.411 150.728 194.177 151.013 194.177C151.298 194.177 151.532 194.411 151.532 194.696V214.651C151.532 214.939 151.301 215.17 151.013 215.17Z" fill="black"/>
<path d="M173.17 215.17C172.884 215.17 172.651 214.936 172.651 214.651V146.777C172.651 146.492 172.884 146.259 173.17 146.259C173.455 146.259 173.688 146.492 173.688 146.777V214.651C173.688 214.939 173.457 215.17 173.17 215.17Z" fill="black"/>
<path d="M92.8122 215.17C92.527 215.17 92.2937 214.936 92.2937 214.651V146.777C92.2937 137.275 100.022 129.544 109.524 129.544H118.702C118.987 129.544 119.22 129.777 119.22 130.063C119.22 130.348 118.987 130.581 118.702 130.581H109.524C100.595 130.581 93.3307 137.846 93.3307 146.777V214.651C93.3307 214.939 93.0974 215.17 92.8122 215.17Z" fill="black"/>
<path d="M163.665 136.116L136.388 168.472C134.193 171.077 130.177 171.077 127.981 168.472L100.704 136.116C97.6889 132.541 100.232 127.073 104.909 127.073H159.463C164.137 127.073 166.678 132.541 163.665 136.116Z" fill="#FFB4E4"/>
<path d="M104.706 81.7464C120.332 75.5775 130.137 63.327 126.606 54.3842C123.076 45.4414 107.546 43.1928 91.9209 49.3617C76.2953 55.5306 66.4904 67.7811 70.021 76.7239C73.5516 85.6667 89.0807 87.9153 104.706 81.7464Z" fill="black"/>
<path d="M113.017 100.209C115.498 83.3222 108.59 68.322 97.5868 66.705C86.5835 65.088 75.6518 77.4665 73.1702 94.3532C70.6885 111.24 77.5967 126.24 88.6 127.857C99.6033 129.474 110.535 117.096 113.017 100.209Z" fill="black"/>
<path d="M194.049 76.7227C197.58 67.7799 187.775 55.5294 172.149 49.3605C156.524 43.1916 140.995 45.4403 137.464 54.3831C133.934 63.3258 143.738 75.5763 159.364 81.7452C174.99 87.9141 190.519 85.6655 194.049 76.7227Z" fill="black"/>
<path d="M175.498 127.851C186.501 126.234 193.409 111.234 190.928 94.3472C188.446 77.4605 177.514 65.082 166.511 66.699C155.508 68.316 148.6 83.3163 151.081 100.203C153.563 117.09 164.494 129.468 175.498 127.851Z" fill="black"/>
<path d="M168.127 76.4685V112.612C168.127 123.682 159.154 132.655 148.084 132.655H116.063C104.995 132.655 96.0219 123.682 96.0219 112.612V76.4685C96.0219 62.3881 105.194 50.4518 117.885 46.3063C120.989 45.2926 124.302 44.7456 127.742 44.7456H136.401C139.844 44.7456 143.155 45.2926 146.259 46.3063C158.954 50.4493 168.127 62.3881 168.127 76.4685Z" fill="#F7E8DD"/>
<path d="M109.568 103.836C105.417 107.31 100.45 109.234 95.9907 108.871V76.4815C95.9907 62.4011 105.163 50.4648 117.854 46.3193C118.046 47.8437 118.323 49.4719 118.702 51.2115C122.15 67.1248 127.672 67.4411 128.16 79.5667C128.603 90.5463 114.971 99.3144 109.568 103.836Z" fill="#DB995D"/>
<path d="M168.096 76.4815V108.871C163.637 109.234 158.669 107.31 154.518 103.836C149.115 99.3144 135.484 90.5463 135.924 79.5641C136.412 67.4385 141.937 67.1222 145.382 51.2089C145.761 49.4693 146.035 47.8411 146.23 46.3167C158.923 50.4648 168.096 62.4011 168.096 76.4815Z" fill="#DB995D"/>
<path d="M132.043 112.677C131.758 112.677 131.525 112.443 131.525 112.158V98.6118C131.525 98.3267 131.758 98.0933 132.043 98.0933C132.328 98.0933 132.562 98.3267 132.562 98.6118V112.158C132.562 112.443 132.328 112.677 132.043 112.677Z" fill="black"/>
<path d="M136.894 115.757C136.809 115.757 136.723 115.736 136.643 115.692L132.043 113.146L127.444 115.692C127.193 115.832 126.879 115.739 126.739 115.49C126.602 115.238 126.692 114.924 126.941 114.784L131.792 112.101C131.947 112.016 132.137 112.016 132.295 112.101L137.146 114.784C137.397 114.922 137.488 115.238 137.348 115.49C137.252 115.661 137.076 115.757 136.894 115.757Z" fill="black"/>
<path d="M125.17 93.6211L125.774 92.75C128.81 88.3789 135.276 88.3789 138.312 92.75L138.916 93.6211C140.379 95.7289 138.872 98.6093 136.308 98.6093H127.781C125.214 98.6119 123.706 95.7289 125.17 93.6211Z" fill="black"/>
<path d="M97.7097 51.2737C96.2371 51.2737 94.5311 51.0067 92.5556 50.3585C88.6771 49.0804 85.8019 46.1481 84.6637 42.3111C83.7537 39.2415 84.1271 36.0604 85.6152 34.2093C85.7941 33.9863 86.1208 33.95 86.3437 34.1289C86.5667 34.3078 86.603 34.6344 86.4241 34.8574C85.1615 36.4285 84.8556 39.3037 85.6567 42.0156C86.6963 45.5207 89.3278 48.2041 92.8771 49.3707C99.9004 51.6833 103.162 48.7926 104.482 46.8611C104.668 46.5889 104.834 46.3089 104.987 46.0211C104.946 45.9952 104.902 45.9667 104.86 45.9407C102.501 44.4033 100.852 41.7278 101.023 39.7185C101.114 38.6685 101.694 37.8596 102.662 37.4422C103.934 36.8926 105.137 37.1518 105.962 38.15C107.173 39.6174 107.468 42.7233 106.333 45.5752C107.58 46.1585 109.4 46.5681 111.329 45.5104C117.066 42.3733 115.013 35.4407 114.922 35.1478C114.839 34.873 114.992 34.5852 115.264 34.4996C115.539 34.4167 115.827 34.5696 115.912 34.8419C115.938 34.9222 118.31 42.8737 111.826 46.4204C109.967 47.4393 107.896 47.4652 105.897 46.5215C105.731 46.8378 105.544 47.1463 105.34 47.447C104.24 49.0596 101.954 51.2737 97.7097 51.2737ZM103.945 38.1941C103.675 38.1941 103.385 38.2615 103.074 38.3963C102.449 38.6659 102.117 39.1274 102.057 39.8067C101.917 41.4348 103.393 43.7422 105.417 45.067C106.338 42.643 106.151 40.0141 105.161 38.8111C104.826 38.4015 104.419 38.1941 103.945 38.1941Z" fill="black"/>
<path d="M117.514 86.1363C120.166 86.1363 122.316 83.9866 122.316 81.3348C122.316 78.683 120.166 76.5333 117.514 76.5333C114.863 76.5333 112.713 78.683 112.713 81.3348C112.713 83.9866 114.863 86.1363 117.514 86.1363Z" fill="black"/>
<path d="M119.065 81.2752C119.955 81.2752 120.677 80.5532 120.677 79.6626C120.677 78.772 119.955 78.05 119.065 78.05C118.174 78.05 117.452 78.772 117.452 79.6626C117.452 80.5532 118.174 81.2752 119.065 81.2752Z" fill="white"/>
<path d="M115.876 82.517C116.33 82.517 116.698 82.1491 116.698 81.6952C116.698 81.2413 116.33 80.8733 115.876 80.8733C115.422 80.8733 115.054 81.2413 115.054 81.6952C115.054 82.1491 115.422 82.517 115.876 82.517Z" fill="white"/>
<path d="M146.57 86.1363C149.221 86.1363 151.371 83.9866 151.371 81.3348C151.371 78.683 149.221 76.5333 146.57 76.5333C143.918 76.5333 141.768 78.683 141.768 81.3348C141.768 83.9866 143.918 86.1363 146.57 86.1363Z" fill="black"/>
<path d="M145.022 81.2752C145.912 81.2752 146.634 80.5532 146.634 79.6626C146.634 78.772 145.912 78.05 145.022 78.05C144.131 78.05 143.409 78.772 143.409 79.6626C143.409 80.5532 144.131 81.2752 145.022 81.2752Z" fill="white"/>
<path d="M148.208 82.517C148.662 82.517 149.03 82.1491 149.03 81.6952C149.03 81.2413 148.662 80.8733 148.208 80.8733C147.754 80.8733 147.386 81.2413 147.386 81.6952C147.386 82.1491 147.754 82.517 148.208 82.517Z" fill="white"/>
<path d="M152.748 88.2752H149.123C148.164 88.2752 147.389 87.4974 147.389 86.5407C147.389 85.5815 148.167 84.8063 149.123 84.8063H152.748C153.707 84.8063 154.482 85.5841 154.482 86.5407C154.485 87.5 153.707 88.2752 152.748 88.2752Z" fill="#6BDFF2"/>
<path d="M114.961 88.2752H111.336C110.377 88.2752 109.602 87.4974 109.602 86.5407C109.602 85.5815 110.38 84.8063 111.336 84.8063H114.961C115.92 84.8063 116.695 85.5841 116.695 86.5407C116.698 87.5 115.92 88.2752 114.961 88.2752Z" fill="#6BDFF2"/>
<path d="M111.207 74.913C110.989 74.913 110.787 74.7756 110.714 74.5552C110.623 74.283 110.774 73.99 111.043 73.9018L118.028 71.6048C118.3 71.5141 118.593 71.6644 118.681 71.9341C118.772 72.2063 118.622 72.4993 118.352 72.5874L111.367 74.8844C111.313 74.9026 111.259 74.913 111.207 74.913Z" fill="black"/>
<path d="M153.17 74.913C153.116 74.913 153.061 74.9052 153.01 74.887L146.025 72.59C145.753 72.4993 145.605 72.2063 145.696 71.9367C145.784 71.6644 146.08 71.5167 146.349 71.6074L153.334 73.9044C153.606 73.9952 153.754 74.2881 153.663 74.5578C153.59 74.773 153.388 74.913 153.17 74.913Z" fill="black"/>
</svg>
