<svg width="18" height="20" viewBox="0 0 18 20" fill="none" xmlns="http://www.w3.org/2000/svg">
<path d="M10.9 20C9.59999 20 7.99999 19.5 6.39999 18.4C4.39999 17.1 2.5 15.1 1.4 13C-4.76837e-06 10.7 -0.300005 8.5 0.299995 6.5C0.999995 4.3 3.1 2.6 6.5 1.6C10 0.599999 12.7 0.799999 14.5 2.4C16 3.7 16.9 5.8 17 8.5C17.1 10.9 16.6 13.5 15.7 15.7C15.2 16.8 14.7 17.7 14.1 18.4C13.5 19.2 12.8 19.6 12.1 19.8C11.7 19.9 11.3 20 10.9 20ZM10.3 3C9.4 3 8.3 3.2 7.1 3.5C4.4 4.3 2.79999 5.5 2.19999 7.1C1.79999 8.4 2.09999 10.2 3.09999 12C4.09999 13.8 5.7 15.5 7.5 16.7C9.3 17.9 10.8 18.1 11.5 17.9C11.6 17.9 12 17.7 12.5 17.1C13 16.5 13.4 15.8 13.8 14.9C14.6 13 15.1 10.6 15 8.5C14.9 6.4 14.3 4.8 13.2 3.9C12.5 3.3 11.5 3 10.3 3ZM8.8 13C6.7 13 5 11.3 5 9.2C5 7.1 6.7 5.4 8.8 5.4C10.9 5.4 12.6 7.1 12.6 9.2C12.5 11.3 10.8 13 8.8 13ZM8.8 7.5C7.8 7.5 7 8.3 7 9.3C7 10.3 7.8 11.1 8.8 11.1C9.8 11.1 10.6 10.3 10.6 9.3C10.6 8.3 9.7 7.5 8.8 7.5Z" fill="black"/>
</svg>
