<svg width="19" height="18" viewBox="0 0 19 18" fill="none" xmlns="http://www.w3.org/2000/svg">
<path d="M2.75 8C2.2 8 1.72917 7.80417 1.3375 7.4125C0.945833 7.02083 0.75 6.55 0.75 6V2C0.75 1.45 0.945833 0.979167 1.3375 0.5875C1.72917 0.195833 2.2 0 2.75 0H6.75C7.3 0 7.77083 0.195833 8.1625 0.5875C8.55417 0.979167 8.75 1.45 8.75 2V6C8.75 6.55 8.55417 7.02083 8.1625 7.4125C7.77083 7.80417 7.3 8 6.75 8H2.75ZM2.75 18C2.2 18 1.72917 17.8042 1.3375 17.4125C0.945833 17.0208 0.75 16.55 0.75 16V12C0.75 11.45 0.945833 10.9792 1.3375 10.5875C1.72917 10.1958 2.2 10 2.75 10H6.75C7.3 10 7.77083 10.1958 8.1625 10.5875C8.55417 10.9792 8.75 11.45 8.75 12V16C8.75 16.55 8.55417 17.0208 8.1625 17.4125C7.77083 17.8042 7.3 18 6.75 18H2.75ZM12.75 8C12.2 8 11.7292 7.80417 11.3375 7.4125C10.9458 7.02083 10.75 6.55 10.75 6V2C10.75 1.45 10.9458 0.979167 11.3375 0.5875C11.7292 0.195833 12.2 0 12.75 0H16.75C17.3 0 17.7708 0.195833 18.1625 0.5875C18.5542 0.979167 18.75 1.45 18.75 2V6C18.75 6.55 18.5542 7.02083 18.1625 7.4125C17.7708 7.80417 17.3 8 16.75 8H12.75ZM12.75 18C12.2 18 11.7292 17.8042 11.3375 17.4125C10.9458 17.0208 10.75 16.55 10.75 16V12C10.75 11.45 10.9458 10.9792 11.3375 10.5875C11.7292 10.1958 12.2 10 12.75 10H16.75C17.3 10 17.7708 10.1958 18.1625 10.5875C18.5542 10.9792 18.75 11.45 18.75 12V16C18.75 16.55 18.5542 17.0208 18.1625 17.4125C17.7708 17.8042 17.3 18 16.75 18H12.75ZM2.75 6H6.75V2H2.75V6ZM12.75 6H16.75V2H12.75V6ZM12.75 16H16.75V12H12.75V16ZM2.75 16H6.75V12H2.75V16Z" fill="#3A484D"/>
</svg>
