<svg width="17" height="18" viewBox="0 0 17 18" fill="none" xmlns="http://www.w3.org/2000/svg">
<path d="M2.25 16H5.25V10H11.25V16H14.25V7L8.25 2.5L2.25 7V16ZM2.25 18C1.7 18 1.22917 17.8042 0.8375 17.4125C0.445833 17.0208 0.25 16.55 0.25 16V7C0.25 6.68333 0.320833 6.38333 0.4625 6.1C0.604167 5.81667 0.8 5.58333 1.05 5.4L7.05 0.9C7.23333 0.766667 7.425 0.666667 7.625 0.6C7.825 0.533333 8.03333 0.5 8.25 0.5C8.46667 0.5 8.675 0.533333 8.875 0.6C9.075 0.666667 9.26667 0.766667 9.45 0.9L15.45 5.4C15.7 5.58333 15.8958 5.81667 16.0375 6.1C16.1792 6.38333 16.25 6.68333 16.25 7V16C16.25 16.55 16.0542 17.0208 15.6625 17.4125C15.2708 17.8042 14.8 18 14.25 18H9.25V12H7.25V18H2.25Z" fill="#3A484D"/>
</svg>
