<svg width="17" height="16" viewBox="0 0 17 16" fill="none" xmlns="http://www.w3.org/2000/svg">
<path d="M8.75 8C7.65 8 6.70833 7.60833 5.925 6.825C5.14167 6.04167 4.75 5.1 4.75 4C4.75 2.9 5.14167 1.95833 5.925 1.175C6.70833 0.391667 7.65 0 8.75 0C9.85 0 10.7917 0.391667 11.575 1.175C12.3583 1.95833 12.75 2.9 12.75 4C12.75 5.1 12.3583 6.04167 11.575 6.825C10.7917 7.60833 9.85 8 8.75 8ZM14.75 16H2.75C2.2 16 1.72917 15.8042 1.3375 15.4125C0.945833 15.0208 0.75 14.55 0.75 14V13.2C0.75 12.6333 0.895833 12.1125 1.1875 11.6375C1.47917 11.1625 1.86667 10.8 2.35 10.55C3.38333 10.0333 4.43333 9.64583 5.5 9.3875C6.56667 9.12917 7.65 9 8.75 9C9.85 9 10.9333 9.12917 12 9.3875C13.0667 9.64583 14.1167 10.0333 15.15 10.55C15.6333 10.8 16.0208 11.1625 16.3125 11.6375C16.6042 12.1125 16.75 12.6333 16.75 13.2V14C16.75 14.55 16.5542 15.0208 16.1625 15.4125C15.7708 15.8042 15.3 16 14.75 16Z" fill="#2371EE"/>
</svg>
