<svg width="20" height="20" viewBox="0 0 20 20" fill="none" xmlns="http://www.w3.org/2000/svg">
<path d="M15.3 19.5C14.4 19.5 13.5 19.4 12.6 19.3C10.8 19 9 19 7.2 19.3C6.3 19.4 5.4 19.5 4.5 19.5C3.8 19.5 3.1 19.2 2.6 18.6C2.1 18 1.8 17.3 1.8 16.6C1.8 15.7 2.1 15 2.7 14.3C3.3 13.7 3.9 13 4.5 12.4C5 11.9 5.4 11.3 5.8 10.7C6.1 10.1 6.6 9.5 7.1 9C7.5 8.6 7.9 8.2 8.4 7.9C9.4 7.3 10.6 7.3 11.6 7.9C12.1 8.2 12.5 8.5 12.9 9C13.4 9.5 13.8 10.1 14.1 10.7C14.5 11.3 14.9 11.9 15.4 12.4C16 13 16.6 13.7 17.2 14.3C17.8 14.9 18.1 15.7 18.1 16.6C18.1 17.4 17.8 18.1 17.3 18.6C16.7 19.2 16.1 19.5 15.3 19.5ZM10 17.3C11 17.3 12 17.4 13 17.6C13.8 17.7 14.6 17.8 15.4 17.8C15.6 17.8 15.8 17.7 15.9 17.5C16.1 17.3 16.2 17 16.2 16.7C16.2 16.3 16.1 16 15.8 15.6C15.2 15 14.6 14.3 14 13.7C13.4 13.1 12.9 12.4 12.5 11.7C12.2 11.2 11.9 10.7 11.5 10.3C11.3 10 11 9.8 10.7 9.6C10.3 9.4 9.8 9.4 9.3 9.6C9 9.8 8.7 10 8.5 10.3C8.1 10.7 7.8 11.2 7.5 11.7C7 12.4 6.5 13 6 13.7C5.4 14.3 4.8 15 4.3 15.6C4 15.9 3.9 16.2 3.9 16.7C3.9 17 4 17.3 4.2 17.5C4.4 17.7 4.5 17.8 4.7 17.8C5.5 17.8 6.3 17.7 7.1 17.6C8 17.4 9 17.3 10 17.3ZM17.5 9.5C16.8 9.5 16.2 9.3 15.7 8.8C15.2 8.3 15 7.7 15 7C15 6.3 15.2 5.7 15.7 5.2C16.7 4.2 18.3 4.2 19.2 5.2C19.8 5.7 20 6.3 20 7C20 7.7 19.8 8.3 19.3 8.8C18.8 9.3 18.2 9.5 17.5 9.5ZM17.5 6.3C17.3 6.3 17.1 6.4 17 6.5C16.9 6.6 16.8 6.8 16.8 7C16.8 7.2 16.9 7.4 17 7.5C17.1 7.6 17.3 7.7 17.5 7.7C17.7 7.7 17.9 7.6 18 7.5C18.1 7.4 18.2 7.2 18.2 7C18.2 6.8 18.1 6.6 18 6.5C17.9 6.4 17.7 6.3 17.5 6.3ZM2.5 9.5C1.8 9.5 1.2 9.3 0.7 8.8C0.2 8.3 0 7.7 0 7C0 6.3 0.2 5.7 0.7 5.2C1.7 4.2 3.3 4.2 4.2 5.2C4.8 5.7 5 6.3 5 7C5 7.7 4.8 8.3 4.3 8.8C3.8 9.3 3.2 9.5 2.5 9.5ZM2.5 6.3C2.2 6.3 2.1 6.4 2 6.5C1.9 6.6 1.8 6.8 1.8 7C1.8 7.2 1.9 7.4 2 7.5C2.1 7.6 2.2 7.7 2.5 7.7C2.8 7.7 2.9 7.7 3 7.5C3.1 7.4 3.2 7.3 3.2 7C3.2 6.7 3.1 6.6 3 6.5C2.9 6.4 2.8 6.3 2.5 6.3ZM13 5.5C12.3 5.5 11.7 5.3 11.2 4.8C10.7 4.3 10.5 3.7 10.5 3C10.5 2.3 10.7 1.7 11.2 1.2C12.2 0.199997 13.8 0.199997 14.7 1.2C15.2 1.7 15.4 2.3 15.4 3C15.4 3.7 15.2 4.3 14.7 4.8C14.3 5.3 13.7 5.5 13 5.5ZM13 2.3C12.8 2.3 12.6 2.4 12.5 2.5C12.4 2.6 12.3 2.8 12.3 3C12.3 3.2 12.4 3.4 12.5 3.5C12.6 3.6 12.8 3.7 13 3.7C13.2 3.7 13.4 3.6 13.5 3.5C13.6 3.4 13.7 3.2 13.7 3C13.7 2.8 13.6 2.6 13.5 2.5C13.4 2.4 13.2 2.3 13 2.3ZM7 5.5C6.3 5.5 5.7 5.3 5.2 4.8C4.7 4.3 4.5 3.7 4.5 3C4.5 2.3 4.7 1.7 5.2 1.2C6.2 0.199997 7.8 0.199997 8.7 1.2C9.2 1.7 9.4 2.3 9.4 3C9.4 3.7 9.2 4.3 8.7 4.8C8.3 5.3 7.7 5.5 7 5.5ZM7 2.3C6.7 2.3 6.6 2.4 6.5 2.5C6.4 2.6 6.3 2.8 6.3 3C6.3 3.2 6.4 3.4 6.5 3.5C6.6 3.7 6.7 3.7 7 3.7C7.3 3.7 7.4 3.6 7.5 3.5C7.6 3.4 7.7 3.3 7.7 3C7.7 2.7 7.6 2.6 7.5 2.5C7.4 2.4 7.3 2.3 7 2.3Z" fill="black"/>
</svg>
