<svg width="20" height="14" viewBox="0 0 20 14" fill="none" xmlns="http://www.w3.org/2000/svg">
<path fill-rule="evenodd" clip-rule="evenodd" d="M9.99999 0C10.3343 0 10.6466 0.167101 10.832 0.4453L14.227 5.53776L18.3753 2.21913C18.7035 1.95657 19.1609 1.92726 19.5199 2.14577C19.8789 2.36428 20.063 2.78398 19.9806 3.19612L17.9806 13.1961C17.8871 13.6635 17.4767 14 17 14H2.99999C2.52331 14 2.1129 13.6635 2.01941 13.1961L0.0194123 3.19612C-0.0630156 2.78398 0.121065 2.36428 0.4801 2.14577C0.839135 1.92726 1.29649 1.95657 1.62469 2.21913L5.77297 5.53776L9.16794 0.4453C9.35341 0.167101 9.66564 0 9.99999 0ZM9.99999 2.80278L6.83204 7.5547C6.67657 7.78791 6.43037 7.94516 6.15341 7.98816C5.87645 8.03116 5.59416 7.95596 5.3753 7.78087L2.51896 5.4958L3.8198 12H16.1802L17.481 5.4958L14.6247 7.78087C14.4058 7.95596 14.1235 8.03116 13.8466 7.98816C13.5696 7.94516 13.3234 7.78791 13.1679 7.5547L9.99999 2.80278Z" fill="black"/>
</svg>
