<svg width="21" height="18" viewBox="0 0 21 18" fill="none" xmlns="http://www.w3.org/2000/svg">
<path d="M6.25 8.5C6.53333 8.5 6.77083 8.40417 6.9625 8.2125C7.15417 8.02083 7.25 7.78333 7.25 7.5C7.25 7.21667 7.15417 6.97917 6.9625 6.7875C6.77083 6.59583 6.53333 6.5 6.25 6.5C5.96667 6.5 5.72917 6.59583 5.5375 6.7875C5.34583 6.97917 5.25 7.21667 5.25 7.5C5.25 7.78333 5.34583 8.02083 5.5375 8.2125C5.72917 8.40417 5.96667 8.5 6.25 8.5ZM10.25 8.5C10.5333 8.5 10.7708 8.40417 10.9625 8.2125C11.1542 8.02083 11.25 7.78333 11.25 7.5C11.25 7.21667 11.1542 6.97917 10.9625 6.7875C10.7708 6.59583 10.5333 6.5 10.25 6.5C9.96667 6.5 9.72917 6.59583 9.5375 6.7875C9.34583 6.97917 9.25 7.21667 9.25 7.5C9.25 7.78333 9.34583 8.02083 9.5375 8.2125C9.72917 8.40417 9.96667 8.5 10.25 8.5ZM14.25 8.5C14.5333 8.5 14.7708 8.40417 14.9625 8.2125C15.1542 8.02083 15.25 7.78333 15.25 7.5C15.25 7.21667 15.1542 6.97917 14.9625 6.7875C14.7708 6.59583 14.5333 6.5 14.25 6.5C13.9667 6.5 13.7292 6.59583 13.5375 6.7875C13.3458 6.97917 13.25 7.21667 13.25 7.5C13.25 7.78333 13.3458 8.02083 13.5375 8.2125C13.7292 8.40417 13.9667 8.5 14.25 8.5ZM4.25 15L1.95 17.3C1.63333 17.6167 1.27083 17.6875 0.8625 17.5125C0.454167 17.3375 0.25 17.025 0.25 16.575V2C0.25 1.45 0.445833 0.979167 0.8375 0.5875C1.22917 0.195833 1.7 0 2.25 0H18.25C18.8 0 19.2708 0.195833 19.6625 0.5875C20.0542 0.979167 20.25 1.45 20.25 2V13C20.25 13.55 20.0542 14.0208 19.6625 14.4125C19.2708 14.8042 18.8 15 18.25 15H4.25ZM2.25 13H18.25V2H2.25V13Z" fill="#3A484D"/>
</svg>
